<?xml version="1.0" standalone="no"?>
<!DOCTYPE svg PUBLIC "-//W3C//DTD SVG 20010904//EN"
 "http://www.w3.org/TR/2001/REC-SVG-20010904/DTD/svg10.dtd">
<svg version="1.0" xmlns="http://www.w3.org/2000/svg"
 width="501.000000pt" height="501.000000pt" viewBox="0 0 501.000000 501.000000"
 preserveAspectRatio="xMidYMid meet">
<metadata>
Created by potrace 1.14, written by Peter Selinger 2001-2017
</metadata>
<g transform="translate(0.000000,501.000000) scale(0.100000,-0.100000)"
fill="#000000" stroke="none">
<path d="M470 2525 l0 -720 165 0 c106 0 165 3 166 10 0 5 1 207 2 447 0 241
2 437 3 435 1 -1 89 -173 194 -382 106 -209 197 -382 201 -386 10 -6 197 -5
201 1 2 3 34 64 70 135 234 461 311 611 317 618 4 4 8 -185 9 -420 0 -235 1
-435 1 -443 1 -13 26 -15 166 -15 l165 0 0 720 0 720 -222 0 -223 0 -65 -131
c-81 -162 -255 -521 -287 -591 -14 -29 -28 -53 -32 -53 -4 0 -36 60 -71 133
-35 72 -116 242 -182 375 -65 134 -118 248 -118 253 0 12 14 11 -237 13 l-223
1 0 -720z"/>
<path d="M2500 3242 c-12 -4 -14 -1431 -2 -1433 23 -4 322 -3 323 1 4 17 3
1430 -1 1431 -13 3 -310 4 -320 1z"/>
<path d="M3607 3224 c-1 -2 -50 -6 -107 -10 -94 -6 -110 -10 -153 -38 -26 -17
-50 -40 -53 -52 -3 -12 -23 -31 -44 -43 -21 -12 -59 -44 -84 -72 -38 -43 -46
-58 -46 -91 0 -22 -5 -48 -10 -58 -16 -30 -17 -82 -3 -125 15 -45 30 -64 91
-117 42 -38 42 -38 130 -38 49 1 104 7 127 15 53 19 61 19 86 -6 18 -18 35
-23 87 -28 10 -1 11 -15 7 -58 -6 -56 -5 -60 34 -112 47 -63 59 -109 42 -166
-23 -74 -23 -100 -3 -151 11 -27 39 -98 62 -159 24 -60 51 -117 61 -126 22
-20 90 -16 156 7 41 15 133 101 133 125 0 6 14 29 31 50 17 21 27 43 24 49
-14 22 5 57 42 77 83 47 96 80 72 184 -19 85 8 132 126 219 61 45 104 111 112
171 l6 41 -44 -8 c-87 -15 -95 -12 -175 72 -40 44 -74 83 -74 89 0 5 -25 51
-56 103 -31 51 -54 96 -51 99 3 2 8 -5 12 -16 8 -27 25 -17 25 14 0 32 -11 37
-94 42 -39 2 -88 10 -109 18 -53 21 -74 19 -89 -9 l-13 -24 -77 31 -78 32 0
38 0 38 -50 -2 c-28 -2 -51 -4 -53 -5z"/>
<path d="M4448 2177 c-15 -12 -38 -30 -53 -40 -31 -22 -41 -45 -49 -118 -8
-63 2 -84 33 -74 40 12 128 187 117 231 -8 29 -14 30 -48 1z"/>
</g>
</svg>
